<svg width="28" height="28" viewBox="0 0 28 28" fill="none" xmlns="http://www.w3.org/2000/svg">
<path d="M2.29833 15.0978V17.5012C2.29833 23.3345 4.63167 25.6678 10.465 25.6678H17.465C23.2983 25.6678 25.6317 23.3345 25.6317 17.5012V15.1678M12.7983 2.33334H10.465C4.63167 2.33334 2.29833 4.66668 2.29833 10.5" stroke="white" stroke-width="1.5" stroke-linecap="round" stroke-linejoin="round"/>
<path d="M21.595 3.49999C22.365 3.06833 23.1117 2.70666 23.8117 2.42666C24.36 2.21666 24.8967 2.37999 25.235 2.71833C25.585 3.06833 25.76 3.60499 25.5383 4.15333C24.1033 7.73499 20.4983 12.6117 17.4883 15.0267L15.645 16.4967C15.4117 16.6717 15.1783 16.8117 14.91 16.9167C14.91 16.7417 14.8983 16.5667 14.875 16.38C14.77 15.5983 14.42 14.8633 13.79 14.245C13.1483 13.6033 12.3783 13.2417 11.585 13.1367C11.3983 13.125 11.2117 13.1133 11.025 13.125C11.13 12.8333 11.2817 12.565 11.48 12.3433L12.9383 10.5C14.1867 8.93666 16.1117 7.20999 18.1767 5.70499" stroke="white" stroke-width="1.5" stroke-linecap="round" stroke-linejoin="round"/>
<path d="M18.4567 13.9778C18.4567 11.5395 16.485 9.55615 14.035 9.55615M14.91 16.9038C14.91 17.9305 14.5133 18.9105 13.7783 19.6572C13.2067 20.2288 12.4367 20.6255 11.515 20.7422L9.21667 20.9872C8.92142 21.0187 8.62287 20.9835 8.34302 20.8843C8.06318 20.7851 7.80919 20.6242 7.59979 20.4137C7.3904 20.2032 7.23094 19.9484 7.13319 19.668C7.03544 19.3876 7.00188 19.0889 7.035 18.7938L7.28 16.4955C7.50167 14.4538 9.205 13.1472 11.025 13.1122C11.2117 13.1005 11.3983 13.1122 11.585 13.1238C12.3783 13.2288 13.1483 13.5905 13.79 14.2322C14.42 14.8622 14.77 15.5855 14.875 16.3672C14.8983 16.5538 14.91 16.7405 14.91 16.9038Z" stroke="white" stroke-width="1.5" stroke-linecap="round" stroke-linejoin="round"/>
</svg>
