<svg width="28" height="28" viewBox="0 0 28 28" fill="none" xmlns="http://www.w3.org/2000/svg">
<path d="M24.255 13.23L20.3584 5.43667C20.0673 4.85375 19.6194 4.36363 19.0649 4.02148C18.5105 3.67933 17.8715 3.49873 17.22 3.50001H10.78C10.1285 3.49873 9.48955 3.67933 8.93509 4.02148C8.38064 4.36363 7.9327 4.85375 7.64169 5.43667L3.74502 13.23C3.5825 13.5561 3.49859 13.9157 3.50002 14.28V21C3.50002 21.9283 3.86877 22.8185 4.52514 23.4749C5.18152 24.1313 6.07176 24.5 7.00002 24.5H21C21.9283 24.5 22.8185 24.1313 23.4749 23.4749C24.1313 22.8185 24.5 21.9283 24.5 21V14.28C24.5014 13.9157 24.4175 13.5561 24.255 13.23ZM9.73002 6.47501C9.82786 6.28083 9.97801 6.11786 10.1635 6.00448C10.3491 5.8911 10.5626 5.83183 10.78 5.83334H17.22C17.4374 5.83183 17.651 5.8911 17.8365 6.00448C18.022 6.11786 18.1722 6.28083 18.27 6.47501L21.4434 12.8333H18.6667C18.3573 12.8333 18.0605 12.9563 17.8417 13.175C17.6229 13.3938 17.5 13.6906 17.5 14V16.3333C17.5 16.6428 17.3771 16.9395 17.1583 17.1583C16.9395 17.3771 16.6428 17.5 16.3334 17.5H11.6667C11.3573 17.5 11.0605 17.3771 10.8417 17.1583C10.6229 16.9395 10.5 16.6428 10.5 16.3333V14C10.5 13.6906 10.3771 13.3938 10.1583 13.175C9.93952 12.9563 9.64277 12.8333 9.33335 12.8333H6.55668L9.73002 6.47501Z" fill="white"/>
</svg>
