<svg width="28" height="28" viewBox="0 0 28 28" fill="none" xmlns="http://www.w3.org/2000/svg">
<path d="M2.33333 9.33334C2.33333 4.66668 4.66666 2.33334 9.33333 2.33334H18.6667C23.3333 2.33334 25.6667 4.66668 25.6667 9.33334V15.1667C25.6667 19.8333 23.3333 22.1667 18.6667 22.1667H18.0833C17.7217 22.1667 17.3717 22.3417 17.15 22.6333L15.4 24.9667C14.63 25.9933 13.37 25.9933 12.6 24.9667L10.85 22.6333C10.6633 22.3767 10.2317 22.1667 9.91666 22.1667H9.33333C4.66666 22.1667 2.33333 21 2.33333 15.1667V14" stroke="white" stroke-width="1.5" stroke-miterlimit="10" stroke-linecap="round" stroke-linejoin="round"/>
<path d="M18.3333 12H18.3427M13.6667 12H13.6772M9 12H9.00933" stroke="white" stroke-width="2" stroke-linecap="round" stroke-linejoin="round"/>
</svg>
