<svg width="28" height="28" viewBox="0 0 28 28" fill="none" xmlns="http://www.w3.org/2000/svg">
<path d="M14 1.16664C10.6324 1.13242 7.38896 2.43668 4.98254 4.79279C2.57612 7.14889 1.20362 10.364 1.16669 13.7316C1.17966 16.393 2.03579 18.9818 3.61209 21.1261C5.1884 23.2705 7.40377 24.8601 9.94002 25.6666C10.5817 25.7833 10.815 25.3983 10.815 25.06C10.815 24.7216 10.815 23.975 10.815 22.925C7.24502 23.6833 6.48669 21.245 6.48669 21.245C6.24903 20.4795 5.74379 19.8252 5.06335 19.4016C3.89669 18.6316 5.15669 18.6433 5.15669 18.6433C5.55995 18.6972 5.94577 18.8417 6.28521 19.066C6.62466 19.2903 6.90893 19.5885 7.11669 19.9383C7.47874 20.5661 8.07281 21.0267 8.77103 21.2209C9.46926 21.4151 10.2158 21.3274 10.85 20.9766C10.9152 20.3378 11.2046 19.7426 11.6667 19.2966C8.82002 18.9816 5.83335 17.9083 5.83335 13.09C5.8079 11.8331 6.2723 10.6156 7.12835 9.69498C6.73849 8.61589 6.78452 7.42734 7.25669 6.38164C7.25669 6.38164 8.34169 6.04331 10.7567 7.66498C12.8589 7.10479 15.0711 7.10479 17.1734 7.66498C19.6234 6.04331 20.6734 6.38164 20.6734 6.38164C21.1455 7.42734 21.1916 8.61589 20.8017 9.69498C21.6776 10.5987 22.1672 11.8081 22.1667 13.0666C22.1667 17.8966 19.1567 18.9583 16.3334 19.2733C16.6425 19.5735 16.8813 19.9384 17.0326 20.3418C17.1839 20.7453 17.2439 21.1772 17.2084 21.6066V25.0483C17.2084 25.0483 17.4417 25.7833 18.0834 25.655C20.6124 24.8434 22.8203 23.2535 24.3917 21.1121C25.9632 18.9708 26.8177 16.3877 26.8334 13.7316C26.7964 10.364 25.4239 7.14889 23.0175 4.79279C20.6111 2.43668 17.3676 1.13242 14 1.16664Z" fill="white"/>
</svg>
