<svg width="28" height="28" viewBox="0 0 28 28" fill="none" xmlns="http://www.w3.org/2000/svg">
<path d="M22.2483 7.31501C24.6867 12.215 22.12 17.4183 18.3517 19.6933V21.0467C18.3517 21.385 18.48 22.1667 17.2317 22.1667H10.8033C9.52 22.1667 9.68333 21.665 9.68333 21.0467V19.6933C7 18.0717 4.795 14.91 4.795 11.55C4.795 5.77501 10.1033 1.24834 16.1 2.55501C16.975 2.75334 17.8267 3.06834 18.5967 3.50001" stroke="white" stroke-width="1.5" stroke-linecap="round" stroke-linejoin="round"/>
<path d="M14 9.20499L12.7517 11.375C12.4717 11.8533 12.705 12.25 13.2533 12.25H14.735C15.295 12.25 15.5167 12.6467 15.2367 13.125L14 15.295M9.91666 25.6667C12.5883 24.9083 15.4117 24.9083 18.0833 25.6667" stroke="white" stroke-width="1.5" stroke-linecap="round" stroke-linejoin="round"/>
</svg>
