<svg width="28" height="28" viewBox="0 0 28 28" fill="none" xmlns="http://www.w3.org/2000/svg">
<path d="M17.675 9.80003C16.7808 9.79696 15.8948 9.97024 15.0676 10.31C14.2405 10.6497 13.4884 11.1491 12.8545 11.7798C12.2206 12.4105 11.7173 13.1599 11.3733 13.9853C11.0293 14.8107 10.8515 15.6958 10.85 16.59V23.45C10.85 23.7285 10.9606 23.9956 11.1575 24.1925C11.3544 24.3894 11.6215 24.5 11.9 24.5H14.35C14.6285 24.5 14.8955 24.3894 15.0924 24.1925C15.2894 23.9956 15.4 23.7285 15.4 23.45V16.59C15.3997 16.272 15.4665 15.9575 15.596 15.667C15.7255 15.3765 15.9147 15.1166 16.1514 14.9041C16.388 14.6917 16.6668 14.5315 16.9696 14.434C17.2723 14.3365 17.5921 14.3039 17.9083 14.3384C18.4753 14.4098 18.9964 14.6868 19.3727 15.1169C19.7491 15.547 19.9545 16.1002 19.95 16.6717V23.45C19.95 23.7285 20.0606 23.9956 20.2575 24.1925C20.4544 24.3894 20.7215 24.5 21 24.5H23.45C23.7285 24.5 23.9955 24.3894 24.1924 24.1925C24.3894 23.9956 24.5 23.7285 24.5 23.45V16.59C24.4984 15.6958 24.3206 14.8107 23.9767 13.9853C23.6327 13.1599 23.1294 12.4105 22.4954 11.7798C21.8615 11.1491 21.1095 10.6497 20.2823 10.31C19.4552 9.97024 18.5692 9.79696 17.675 9.80003Z" fill="white"/>
<path d="M7.7 10.85H4.55C3.9701 10.85 3.5 11.3201 3.5 11.9V23.45C3.5 24.0299 3.9701 24.5 4.55 24.5H7.7C8.2799 24.5 8.75 24.0299 8.75 23.45V11.9C8.75 11.3201 8.2799 10.85 7.7 10.85Z" fill="white"/>
<path d="M6.125 8.75C7.57475 8.75 8.75 7.57475 8.75 6.125C8.75 4.67525 7.57475 3.5 6.125 3.5C4.67525 3.5 3.5 4.67525 3.5 6.125C3.5 7.57475 4.67525 8.75 6.125 8.75Z" fill="white"/>
</svg>
