<svg width="100" height="43" viewBox="0 0 374 160" fill="none" xmlns="http://www.w3.org/2000/svg">
<path d="M28.8002 125.156C28.8002 133.148 22.3197 139.414 14.3275 139.414C6.5492 139.414 0.0687256 133.148 0.0687256 125.156C0.0687256 117.163 6.5492 110.9 14.3275 110.9C22.3197 110.9 28.8002 117.163 28.8002 125.156Z" fill="#0ABAB5"/>
<path d="M64.2289 159.503C52.9936 159.503 37.8734 155.182 37.8734 144.166C37.8734 135.093 43.9203 130.124 51.0512 130.558C58.3959 130.989 66.3881 133.581 74.1635 129.908C80.2133 127.101 84.7484 121.699 84.7484 114.14C84.7484 105.067 74.5971 99.2337 52.5629 91.2415C32.6879 84.1136 2.87831 75.2571 2.6615 45.6614C2.6615 34.429 6.9828 23.8441 14.975 15.6351C21.889 8.72099 34.6332 0.511993 56.8842 0.511993C82.1557 0.511993 99.0072 13.9065 104.623 21.8987C108.511 27.0843 107.864 33.9954 103.976 38.9642C98.7904 45.4446 91.0151 44.7972 85.6127 40.0452C81.725 36.5882 72.6518 27.5149 56.0199 27.5149C41.5443 27.5149 31.393 35.0765 31.393 45.6614C31.393 52.5726 38.9545 58.4056 61.4194 67.0482C89.0698 77.6331 113.48 89.2962 113.48 115.868C113.48 137.252 98.5737 159.503 64.2289 159.503Z" fill="#0ABAB5"/>
<path d="M206.845 141.344C206.845 133.352 200.581 126.872 192.589 126.872H176.605V18.656C176.605 10.88 170.125 4.39999 162.133 4.39999C154.357 4.39999 147.877 10.88 147.877 18.656V141.344C147.877 149.12 154.357 155.6 162.133 155.6H192.589C200.581 155.6 206.845 149.12 206.845 141.344ZM235.573 155.6C243.565 155.6 249.829 149.12 249.829 141.344C249.829 133.352 243.565 126.872 235.573 126.872C227.581 126.872 221.317 133.352 221.317 141.344C221.317 149.12 227.581 155.6 235.573 155.6Z" fill="#0ABAB5"/>
<path d="M370.013 131.408L316.445 76.976L335.669 59.264C341.285 53.648 341.285 44.576 335.669 38.96C330.053 33.344 320.981 33.56 315.365 39.176L298.949 56.672V18.656C298.949 10.88 292.469 4.39999 284.477 4.39999C276.701 4.39999 270.221 10.88 270.221 18.656V141.344C270.221 149.12 276.701 155.6 284.477 155.6C292.469 155.6 298.949 149.12 298.949 141.344V97.928L349.277 151.28C354.893 156.896 363.965 157.112 369.581 151.712C375.197 146.096 375.413 137.024 370.013 131.408ZM341.285 18.656C341.285 26.648 347.765 33.128 355.541 33.128C363.533 33.128 370.013 26.648 370.013 18.656C370.013 10.88 363.533 4.39999 355.541 4.39999C347.765 4.39999 341.285 10.88 341.285 18.656Z" fill="#0ABAB5"/>
</svg>
