<svg width="40" height="57" viewBox="0 0 40 57" fill="none" xmlns="http://www.w3.org/2000/svg">
<path d="M10.1336 44.686C10.1336 47.5513 7.84789 49.7979 5.02906 49.7979C2.28566 49.7979 0 47.5513 0 44.686C0 41.8207 2.28566 39.5751 5.02906 39.5751C7.8479 39.5751 10.1336 41.8207 10.1336 44.686Z" fill="#0ABAB5"/>
<path d="M22.6293 57C18.6666 57 13.3337 55.4508 13.3337 51.5016C13.3337 48.2487 15.4664 46.4674 17.9815 46.6228C20.5719 46.7772 23.3908 47.7067 26.1332 46.3896C28.2669 45.3834 29.8665 43.4466 29.8665 40.7368C29.8665 37.484 26.2861 35.3928 18.5147 32.5275C11.5048 29.972 0.990958 26.7969 0.91449 16.1865C0.91449 12.1596 2.43861 8.36479 5.25744 5.42178C7.69602 2.94301 12.1909 0 20.0388 0C28.952 0 34.8955 4.80208 36.8763 7.66737C38.2475 9.52645 38.0192 12.0042 36.648 13.7855C34.819 16.1088 32.0767 15.8767 30.1713 14.1731C28.8001 12.9337 25.6 9.68084 19.7339 9.68084C14.6284 9.68084 11.0481 12.3917 11.0481 16.1865C11.0481 18.6643 13.715 20.7555 21.6383 23.8539C31.3906 27.6487 40 31.8301 40 41.3565C40 49.0228 34.7426 57 22.6293 57Z" fill="#0ABAB5"/>
</svg>
