<svg width="60" height="85" viewBox="0 0 60 85" fill="none" xmlns="http://www.w3.org/2000/svg">
<path d="M15.2003 66.637C15.2003 70.9098 11.7718 74.2601 7.54359 74.2601C3.42849 74.2601 0 70.9098 0 66.637C0 62.3643 3.42849 59.0156 7.54359 59.0156C11.7719 59.0155 15.2003 62.3642 15.2003 66.637Z" fill="#0ABAB5"/>
<path d="M33.9438 85C27.9998 85 20.0005 82.6898 20.0005 76.8006C20.0005 71.9498 23.1996 69.2934 26.9722 69.5252C30.8579 69.7555 35.0861 71.1416 39.1997 69.1775C42.4003 67.677 44.7997 64.7888 44.7997 60.7479C44.7997 55.8971 39.4291 52.7787 27.7719 48.5059C17.2571 44.6951 1.48641 39.9603 1.3717 24.1378C1.3717 18.1327 3.65788 12.4738 7.88613 8.08511C11.544 4.3887 18.2863 0 30.0581 0C43.428 0 52.3432 7.16099 55.3145 11.4338C57.3713 14.2061 57.0287 17.9009 54.972 20.5573C52.2285 24.0219 48.115 23.6758 45.2569 21.1353C43.2001 19.2871 38.3999 14.4363 29.6009 14.4363C21.9426 14.4363 16.5721 18.4789 16.5721 24.1378C16.5721 27.8327 20.5725 30.9511 32.4574 35.5716C47.0858 41.2306 60 47.4659 60 61.672C60 73.1042 52.1139 85 33.9438 85Z" fill="#0ABAB5"/>
</svg>
