<svg width="30" height="44" viewBox="0 0 30 44" fill="none" xmlns="http://www.w3.org/2000/svg">
<path d="M7.60016 34.4945C7.60016 36.7063 5.88592 38.4405 3.77179 38.4405C1.71424 38.4405 0 36.7063 0 34.4945C0 32.2827 1.71424 30.5492 3.77179 30.5492C5.88592 30.5492 7.60016 32.2827 7.60016 34.4945Z" fill="#0ABAB5"/>
<path d="M16.9719 44C13.9999 44 10.0003 42.8041 10.0003 39.7556C10.0003 37.2446 11.5998 35.8695 13.4861 35.9895C15.4289 36.1087 17.5431 36.8263 19.5998 35.8095C21.2002 35.0328 22.3998 33.5378 22.3998 31.446C22.3998 28.935 19.7145 27.3207 13.886 25.1089C8.62855 23.1363 0.743203 20.6853 0.685852 12.4949C0.685852 9.38636 1.82894 6.45703 3.94306 4.18523C5.772 2.2718 9.14313 0 15.0291 0C21.714 0 26.1716 3.70687 27.6572 5.91867C28.6856 7.35375 28.5144 9.26636 27.486 10.6414C26.1143 12.4349 24.0575 12.2557 22.6284 10.9406C21.6001 9.9839 19.2 7.47293 14.8004 7.47293C10.9713 7.47293 8.28602 9.56554 8.28602 12.4949C8.28602 14.4075 10.2862 16.0218 16.2287 18.4135C23.5429 21.3429 30 24.5706 30 31.9243C30 37.8422 26.0569 44 16.9719 44Z" fill="#0ABAB5"/>
</svg>
