<svg width="150" height="158" viewBox="0 0 150 158" fill="none" xmlns="http://www.w3.org/2000/svg">
<circle cx="74.5" cy="69.5" r="69.5" fill="#18212D"/>
<path d="M52.7363 42.2441C51.8574 42.2441 50.7897 42.0391 49.5332 41.6289V39.8613C50.7897 40.4863 51.8835 40.7988 52.8145 40.7988C53.3678 40.7988 53.8268 40.6491 54.1914 40.3496C54.556 40.0501 54.7383 39.6758 54.7383 39.2266C54.7383 38.569 54.2272 38.0254 53.2051 37.5957L52.082 37.1172C50.4219 36.4271 49.5918 35.4342 49.5918 34.1387C49.5918 33.2142 49.9173 32.4883 50.5684 31.9609C51.2259 31.4271 52.1243 31.1602 53.2637 31.1602C53.8561 31.1602 54.5885 31.2415 55.4609 31.4043L55.8613 31.4824V33.084C54.7871 32.765 53.9342 32.6055 53.3027 32.6055C52.0658 32.6055 51.4473 33.0547 51.4473 33.9531C51.4473 34.5326 51.916 35.0208 52.8535 35.418L53.7812 35.8086C54.8294 36.2513 55.5716 36.7201 56.0078 37.2148C56.444 37.7031 56.6621 38.3151 56.6621 39.0508C56.6621 39.9818 56.2943 40.7467 55.5586 41.3457C54.8229 41.9447 53.8822 42.2441 52.7363 42.2441ZM64.2598 42.2441C62.8275 42.2441 61.6393 41.7135 60.6953 40.6523C59.7513 39.5911 59.2793 38.2533 59.2793 36.6387C59.2793 34.9134 59.7448 33.569 60.6758 32.6055C61.6133 31.6419 62.9186 31.1602 64.5918 31.1602C65.4186 31.1602 66.3431 31.2741 67.3652 31.502V33.1133C66.278 32.7943 65.3926 32.6348 64.709 32.6348C63.7259 32.6348 62.9349 33.0059 62.3359 33.748C61.7435 34.4837 61.4473 35.4668 61.4473 36.6973C61.4473 37.8887 61.7533 38.8522 62.3652 39.5879C62.9772 40.3236 63.778 40.6914 64.7676 40.6914C65.6465 40.6914 66.5514 40.4668 67.4824 40.0176V41.6777C66.2389 42.0553 65.1647 42.2441 64.2598 42.2441ZM70.373 42V31.3945H72.2969V33.3867C73.0586 31.9023 74.1654 31.1602 75.6172 31.1602C75.8125 31.1602 76.0176 31.1764 76.2324 31.209V33.0059C75.9004 32.8952 75.6074 32.8398 75.3535 32.8398C74.1361 32.8398 73.1172 33.5625 72.2969 35.0078V42H70.373ZM82.707 42.2441C81.1901 42.2441 79.9792 41.7428 79.0742 40.7402C78.1693 39.7311 77.7168 38.3835 77.7168 36.6973C77.7168 34.9915 78.1693 33.6439 79.0742 32.6543C79.9857 31.6582 81.2194 31.1602 82.7754 31.1602C84.3314 31.1602 85.5618 31.6582 86.4668 32.6543C87.3783 33.6439 87.834 34.985 87.834 36.6777C87.834 38.4095 87.3783 39.7702 86.4668 40.7598C85.5553 41.7493 84.3021 42.2441 82.707 42.2441ZM82.7363 40.7988C84.7741 40.7988 85.793 39.4251 85.793 36.6777C85.793 33.9629 84.7871 32.6055 82.7754 32.6055C80.7702 32.6055 79.7676 33.9694 79.7676 36.6973C79.7676 39.4316 80.7572 40.7988 82.7363 40.7988ZM90.8418 42V26.5801H92.7656V42H90.8418ZM96.623 42V26.5801H98.5469V42H96.623ZM56.7305 66V64.0078C55.9492 65.4987 54.7708 66.2441 53.1953 66.2441C51.9193 66.2441 50.9134 65.7786 50.1777 64.8477C49.4486 63.9167 49.084 62.6439 49.084 61.0293C49.084 59.265 49.4974 57.8457 50.3242 56.7715C51.1576 55.6973 52.2513 55.1602 53.6055 55.1602C54.862 55.1602 55.9036 55.6419 56.7305 56.6055V50.5801H58.6641V66H56.7305ZM56.7305 57.9238C55.7344 57.0449 54.7904 56.6055 53.8984 56.6055C52.056 56.6055 51.1348 58.015 51.1348 60.834C51.1348 63.3145 51.9551 64.5547 53.5957 64.5547C54.6634 64.5547 55.7083 63.972 56.7305 62.8066V57.9238ZM66.6719 66.2441C65.1549 66.2441 63.944 65.7428 63.0391 64.7402C62.1341 63.7311 61.6816 62.3835 61.6816 60.6973C61.6816 58.9915 62.1341 57.6439 63.0391 56.6543C63.9505 55.6582 65.1842 55.1602 66.7402 55.1602C68.2962 55.1602 69.5267 55.6582 70.4316 56.6543C71.3431 57.6439 71.7988 58.985 71.7988 60.6777C71.7988 62.4095 71.3431 63.7702 70.4316 64.7598C69.5202 65.7493 68.2669 66.2441 66.6719 66.2441ZM66.7012 64.7988C68.7389 64.7988 69.7578 63.4251 69.7578 60.6777C69.7578 57.9629 68.752 56.6055 66.7402 56.6055C64.735 56.6055 63.7324 57.9694 63.7324 60.6973C63.7324 63.4316 64.722 64.7988 66.7012 64.7988ZM76.0371 66L73 55.3945H74.8848L77.209 63.6074L79.7188 55.3945H81.6426L83.8398 63.6074L86.5059 55.3945H88.1562L84.6992 66H82.7656L80.5195 57.7871L77.9805 66H76.0371ZM90.2168 66V55.3945H92.1406V57.3867C93.1562 55.9023 94.3997 55.1602 95.8711 55.1602C96.7891 55.1602 97.5215 55.4531 98.0684 56.0391C98.6152 56.6185 98.8887 57.3997 98.8887 58.3828V66H96.9648V59.0078C96.9648 58.2201 96.8477 57.6602 96.6133 57.3281C96.3854 56.9896 96.0046 56.8203 95.4707 56.8203C94.2923 56.8203 93.1823 57.5918 92.1406 59.1348V66H90.2168Z" fill="#213040"/>
<path d="M72.9393 23.0607C73.5251 23.6464 74.4749 23.6464 75.0607 23.0607L84.6066 13.5147C85.1924 12.9289 85.1924 11.9792 84.6066 11.3934C84.0208 10.8076 83.0711 10.8076 82.4853 11.3934L74 19.8787L65.5147 11.3934C64.9289 10.8076 63.9792 10.8076 63.3934 11.3934C62.8076 11.9792 62.8076 12.9289 63.3934 13.5147L72.9393 23.0607ZM72.5 20V22H75.5V20H72.5Z" fill="#213040"/>
<path d="M0 70H150V158H0V70Z" fill="#213040"/>
</svg>
