<svg width="400" height="296" viewBox="0 0 400 296" fill="none" xmlns="http://www.w3.org/2000/svg">
<path d="M27.0306 116.767C26.1517 116.767 25.084 116.562 23.8275 116.151V114.384C25.084 115.009 26.1778 115.321 27.1088 115.321C27.6622 115.321 28.1211 115.172 28.4857 114.872C28.8503 114.573 29.0326 114.198 29.0326 113.749C29.0326 113.092 28.5215 112.548 27.4994 112.118L26.3763 111.64C24.7162 110.95 23.8861 109.957 23.8861 108.661C23.8861 107.737 24.2116 107.011 24.8627 106.484C25.5202 105.95 26.4187 105.683 27.558 105.683C28.1504 105.683 28.8829 105.764 29.7552 105.927L30.1556 106.005V107.607C29.0814 107.288 28.2286 107.128 27.597 107.128C26.3601 107.128 25.7416 107.577 25.7416 108.476C25.7416 109.055 26.2103 109.543 27.1478 109.941L28.0756 110.331C29.1237 110.774 29.8659 111.243 30.3021 111.737C30.7383 112.226 30.9564 112.838 30.9564 113.573C30.9564 114.504 30.5886 115.269 29.8529 115.868C29.1172 116.467 28.1765 116.767 27.0306 116.767ZM34.4135 116.523V105.917H36.3373V116.523H34.4135ZM34.4135 103.993V102.069H36.3373V103.993H34.4135ZM43.3783 116.767C42.4017 116.767 41.64 116.487 41.0931 115.927C40.5463 115.367 40.2728 114.589 40.2728 113.593V107.362H38.9447V105.917H40.2728V103.993L42.1967 103.808V105.917H44.9701V107.362H42.1967V113.241C42.1967 114.628 42.7956 115.321 43.9935 115.321C44.2474 115.321 44.5567 115.279 44.9213 115.194V116.523C44.3288 116.685 43.8145 116.767 43.3783 116.767ZM55.4486 116.181C54.1595 116.571 53.056 116.767 52.1381 116.767C50.5756 116.767 49.2995 116.249 48.3099 115.214C47.3269 114.172 46.8353 112.825 46.8353 111.171C46.8353 109.563 47.2683 108.245 48.1342 107.216C49.0066 106.187 50.1198 105.673 51.474 105.673C52.7566 105.673 53.7461 106.129 54.4427 107.04C55.1459 107.952 55.4974 109.247 55.4974 110.927L55.4877 111.523H48.7982C49.0782 114.042 50.3119 115.302 52.4994 115.302C53.3002 115.302 54.2832 115.087 55.4486 114.657V116.181ZM48.8861 110.077H53.5638C53.5638 108.105 52.8282 107.118 51.3568 107.118C49.8789 107.118 49.0554 108.105 48.8861 110.077ZM6.35681 140.767C4.92452 140.767 3.73637 140.236 2.79236 139.175C1.84835 138.114 1.37634 136.776 1.37634 135.161C1.37634 133.436 1.84184 132.092 2.77283 131.128C3.71033 130.165 5.01567 129.683 6.68884 129.683C7.51567 129.683 8.44014 129.797 9.46228 130.025V131.636C8.37504 131.317 7.48962 131.157 6.80603 131.157C5.82296 131.157 5.03194 131.528 4.43298 132.271C3.84054 133.006 3.54431 133.989 3.54431 135.22C3.54431 136.411 3.8503 137.375 4.46228 138.11C5.07426 138.846 5.87504 139.214 6.86462 139.214C7.74353 139.214 8.64848 138.989 9.57947 138.54V140.2C8.33598 140.578 7.26176 140.767 6.35681 140.767ZM12.4701 140.523V129.917H14.3939V131.909C15.1556 130.425 16.2624 129.683 17.7142 129.683C17.9095 129.683 18.1146 129.699 18.3295 129.732V131.528C17.9974 131.418 17.7045 131.362 17.4506 131.362C16.2331 131.362 15.2142 132.085 14.3939 133.53V140.523H12.4701ZM28.4271 140.181C27.1381 140.571 26.0345 140.767 25.1166 140.767C23.5541 140.767 22.278 140.249 21.2885 139.214C20.3054 138.172 19.8138 136.825 19.8138 135.171C19.8138 133.563 20.2468 132.245 21.1127 131.216C21.9851 130.187 23.0983 129.673 24.4525 129.673C25.7351 129.673 26.7247 130.129 27.4213 131.04C28.1244 131.952 28.476 133.247 28.476 134.927L28.4662 135.523H21.7767C22.0567 138.042 23.2904 139.302 25.4779 139.302C26.2787 139.302 27.2618 139.087 28.4271 138.657V140.181ZM21.8646 134.077H26.5424C26.5424 132.105 25.8067 131.118 24.3353 131.118C22.8575 131.118 22.0339 132.105 21.8646 134.077ZM37.2748 139.175C36.1224 140.236 35.0124 140.767 33.9447 140.767C33.0658 140.767 32.3366 140.493 31.7572 139.946C31.1778 139.393 30.8881 138.696 30.8881 137.857C30.8881 136.698 31.3731 135.809 32.3431 135.191C33.3197 134.566 34.7162 134.253 36.5326 134.253H36.9916V132.974C36.9916 131.743 36.3601 131.128 35.097 131.128C34.0814 131.128 32.9844 131.441 31.806 132.066V130.474C33.1016 129.946 34.3158 129.683 35.4486 129.683C36.6335 129.683 37.5059 129.95 38.0658 130.484C38.6322 131.017 38.9154 131.847 38.9154 132.974V137.778C38.9154 138.879 39.2539 139.429 39.931 139.429C40.0157 139.429 40.1394 139.416 40.3021 139.39L40.4388 140.454C40.0026 140.663 39.5209 140.767 38.9935 140.767C38.0951 140.767 37.5222 140.236 37.2748 139.175ZM36.9916 138.13V135.386L36.347 135.366C35.2924 135.366 34.4395 135.568 33.7885 135.972C33.1374 136.369 32.8119 136.893 32.8119 137.544C32.8119 138.006 32.9747 138.397 33.3002 138.716C33.6257 139.035 34.0228 139.194 34.4916 139.194C35.2924 139.194 36.1257 138.84 36.9916 138.13ZM46.0443 140.767C45.0677 140.767 44.306 140.487 43.7592 139.927C43.2123 139.367 42.9388 138.589 42.9388 137.593V131.362H41.6107V129.917H42.9388V127.993L44.8627 127.808V129.917H47.6361V131.362H44.8627V137.241C44.8627 138.628 45.4616 139.321 46.6595 139.321C46.9135 139.321 47.2227 139.279 47.5873 139.194V140.523C46.9948 140.685 46.4805 140.767 46.0443 140.767ZM50.3412 140.523V129.917H52.265V140.523H50.3412ZM50.3412 127.993V126.069H52.265V127.993H50.3412ZM60.2728 140.767C58.7559 140.767 57.545 140.265 56.64 139.263C55.7351 138.254 55.2826 136.906 55.2826 135.22C55.2826 133.514 55.7351 132.166 56.64 131.177C57.5515 130.181 58.7852 129.683 60.3412 129.683C61.8972 129.683 63.1276 130.181 64.0326 131.177C64.9441 132.166 65.3998 133.508 65.3998 135.2C65.3998 136.932 64.9441 138.293 64.0326 139.282C63.1211 140.272 61.8679 140.767 60.2728 140.767ZM60.3021 139.321C62.3399 139.321 63.3588 137.948 63.3588 135.2C63.3588 132.485 62.3529 131.128 60.3412 131.128C58.336 131.128 57.3334 132.492 57.3334 135.22C57.3334 137.954 58.323 139.321 60.3021 139.321ZM68.4076 140.523V129.917H70.3314V131.909C71.347 130.425 72.5905 129.683 74.0619 129.683C74.9799 129.683 75.7123 129.976 76.2592 130.562C76.806 131.141 77.0795 131.922 77.0795 132.905V140.523H75.1556V133.53C75.1556 132.743 75.0385 132.183 74.8041 131.851C74.5762 131.512 74.1954 131.343 73.6615 131.343C72.4831 131.343 71.3731 132.114 70.3314 133.657V140.523H68.4076Z" fill="white"/>
<path d="M291.144 116.523V102.069H295.519C296.906 102.069 297.967 102.375 298.703 102.987C299.445 103.599 299.816 104.488 299.816 105.653C299.816 107.581 298.843 108.948 296.896 109.755L301.72 116.523H299.201L295.09 110.409H293.176V116.523H291.144ZM293.176 108.876H293.84C296.418 108.876 297.707 107.864 297.707 105.839C297.707 104.348 296.626 103.603 294.465 103.603H293.176V108.876ZM311.633 116.181C310.344 116.571 309.24 116.767 308.322 116.767C306.76 116.767 305.483 116.249 304.494 115.214C303.511 114.172 303.019 112.825 303.019 111.171C303.019 109.563 303.452 108.245 304.318 107.216C305.191 106.187 306.304 105.673 307.658 105.673C308.941 105.673 309.93 106.129 310.627 107.04C311.33 107.952 311.681 109.247 311.681 110.927L311.672 111.523H304.982C305.262 114.042 306.496 115.302 308.683 115.302C309.484 115.302 310.467 115.087 311.633 114.657V116.181ZM305.07 110.077H309.748C309.748 108.105 309.012 107.118 307.541 107.118C306.063 107.118 305.239 108.105 305.07 110.077ZM317.824 116.767C316.945 116.767 315.877 116.562 314.621 116.151V114.384C315.877 115.009 316.971 115.321 317.902 115.321C318.456 115.321 318.914 115.172 319.279 114.872C319.644 114.573 319.826 114.198 319.826 113.749C319.826 113.092 319.315 112.548 318.293 112.118L317.17 111.64C315.51 110.95 314.679 109.957 314.679 108.661C314.679 107.737 315.005 107.011 315.656 106.484C316.314 105.95 317.212 105.683 318.351 105.683C318.944 105.683 319.676 105.764 320.549 105.927L320.949 106.005V107.607C319.875 107.288 319.022 107.128 318.39 107.128C317.153 107.128 316.535 107.577 316.535 108.476C316.535 109.055 317.004 109.543 317.941 109.941L318.869 110.331C319.917 110.774 320.659 111.243 321.095 111.737C321.532 112.226 321.75 112.838 321.75 113.573C321.75 114.504 321.382 115.269 320.646 115.868C319.911 116.467 318.97 116.767 317.824 116.767ZM325.207 120.38V105.917H327.131V107.909C327.918 106.425 329.1 105.683 330.676 105.683C331.952 105.683 332.954 106.148 333.683 107.079C334.419 108.01 334.787 109.283 334.787 110.898C334.787 112.655 334.37 114.075 333.537 115.155C332.71 116.23 331.62 116.767 330.265 116.767C329.009 116.767 327.964 116.285 327.131 115.321V120.38H325.207ZM327.131 113.993C328.12 114.879 329.064 115.321 329.963 115.321C331.812 115.321 332.736 113.912 332.736 111.093C332.736 108.606 331.916 107.362 330.275 107.362C329.201 107.362 328.153 107.945 327.131 109.11V113.993ZM341.955 116.767C340.438 116.767 339.227 116.265 338.322 115.263C337.417 114.254 336.965 112.906 336.965 111.22C336.965 109.514 337.417 108.166 338.322 107.177C339.233 106.181 340.467 105.683 342.023 105.683C343.579 105.683 344.81 106.181 345.715 107.177C346.626 108.166 347.082 109.508 347.082 111.2C347.082 112.932 346.626 114.293 345.715 115.282C344.803 116.272 343.55 116.767 341.955 116.767ZM341.984 115.321C344.022 115.321 345.041 113.948 345.041 111.2C345.041 108.485 344.035 107.128 342.023 107.128C340.018 107.128 339.015 108.492 339.015 111.22C339.015 113.954 340.005 115.321 341.984 115.321ZM350.09 116.523V105.917H352.013V107.909C353.029 106.425 354.273 105.683 355.744 105.683C356.662 105.683 357.394 105.976 357.941 106.562C358.488 107.141 358.761 107.922 358.761 108.905V116.523H356.838V109.53C356.838 108.743 356.72 108.183 356.486 107.851C356.258 107.512 355.877 107.343 355.344 107.343C354.165 107.343 353.055 108.114 352.013 109.657V116.523H350.09ZM365.324 116.767C364.445 116.767 363.377 116.562 362.121 116.151V114.384C363.377 115.009 364.471 115.321 365.402 115.321C365.956 115.321 366.414 115.172 366.779 114.872C367.144 114.573 367.326 114.198 367.326 113.749C367.326 113.092 366.815 112.548 365.793 112.118L364.67 111.64C363.01 110.95 362.179 109.957 362.179 108.661C362.179 107.737 362.505 107.011 363.156 106.484C363.814 105.95 364.712 105.683 365.851 105.683C366.444 105.683 367.176 105.764 368.049 105.927L368.449 106.005V107.607C367.375 107.288 366.522 107.128 365.89 107.128C364.653 107.128 364.035 107.577 364.035 108.476C364.035 109.055 364.504 109.543 365.441 109.941L366.369 110.331C367.417 110.774 368.159 111.243 368.595 111.737C369.032 112.226 369.25 112.838 369.25 113.573C369.25 114.504 368.882 115.269 368.146 115.868C367.411 116.467 366.47 116.767 365.324 116.767ZM372.707 116.523V105.917H374.631V116.523H372.707ZM372.707 103.993V102.069H374.631V103.993H372.707ZM380.685 116.523L376.74 105.917H378.664L381.75 114.169L385.002 105.917H386.799L382.609 116.523H380.685ZM396.613 116.181C395.324 116.571 394.22 116.767 393.303 116.767C391.74 116.767 390.464 116.249 389.474 115.214C388.491 114.172 388 112.825 388 111.171C388 109.563 388.433 108.245 389.299 107.216C390.171 106.187 391.284 105.673 392.638 105.673C393.921 105.673 394.911 106.129 395.607 107.04C396.31 107.952 396.662 109.247 396.662 110.927L396.652 111.523H389.963C390.243 114.042 391.476 115.302 393.664 115.302C394.465 115.302 395.448 115.087 396.613 114.657V116.181ZM390.051 110.077H394.728C394.728 108.105 393.993 107.118 392.521 107.118C391.043 107.118 390.22 108.105 390.051 110.077ZM303.176 140.523V129.917H305.099V140.523H303.176ZM303.176 127.993V126.069H305.099V127.993H303.176ZM308.957 140.523V129.917H310.881V131.909C311.896 130.425 313.14 129.683 314.611 129.683C315.529 129.683 316.261 129.976 316.808 130.562C317.355 131.141 317.629 131.922 317.629 132.905V140.523H315.705V133.53C315.705 132.743 315.588 132.183 315.353 131.851C315.125 131.512 314.745 131.343 314.211 131.343C313.032 131.343 311.922 132.114 310.881 133.657V140.523H308.957ZM324.562 140.767C323.586 140.767 322.824 140.487 322.277 139.927C321.73 139.367 321.457 138.589 321.457 137.593V131.362H320.129V129.917H321.457V127.993L323.381 127.808V129.917H326.154V131.362H323.381V137.241C323.381 138.628 323.98 139.321 325.178 139.321C325.431 139.321 325.741 139.279 326.105 139.194V140.523C325.513 140.685 324.998 140.767 324.562 140.767ZM336.633 140.181C335.344 140.571 334.24 140.767 333.322 140.767C331.76 140.767 330.483 140.249 329.494 139.214C328.511 138.172 328.019 136.825 328.019 135.171C328.019 133.563 328.452 132.245 329.318 131.216C330.191 130.187 331.304 129.673 332.658 129.673C333.941 129.673 334.93 130.129 335.627 131.04C336.33 131.952 336.681 133.247 336.681 134.927L336.672 135.523H329.982C330.262 138.042 331.496 139.302 333.683 139.302C334.484 139.302 335.467 139.087 336.633 138.657V140.181ZM330.07 134.077H334.748C334.748 132.105 334.012 131.118 332.541 131.118C331.063 131.118 330.239 132.105 330.07 134.077ZM340.011 140.523V129.917H341.935V131.909C342.697 130.425 343.804 129.683 345.256 129.683C345.451 129.683 345.656 129.699 345.871 129.732V131.528C345.539 131.418 345.246 131.362 344.992 131.362C343.775 131.362 342.756 132.085 341.935 133.53V140.523H340.011ZM350.49 131.362V140.523H348.556V131.362H347.053V129.917H348.556V128.648C348.556 126.122 349.709 124.859 352.013 124.859C352.658 124.859 353.39 124.966 354.211 125.181V126.704C353.345 126.437 352.651 126.304 352.131 126.304C351.499 126.304 351.066 126.457 350.832 126.763C350.604 127.062 350.49 127.622 350.49 128.443V129.917H353.136V131.362H350.49ZM361.027 139.175C359.875 140.236 358.765 140.767 357.697 140.767C356.818 140.767 356.089 140.493 355.51 139.946C354.93 139.393 354.64 138.696 354.64 137.857C354.64 136.698 355.125 135.809 356.095 135.191C357.072 134.566 358.469 134.253 360.285 134.253H360.744V132.974C360.744 131.743 360.112 131.128 358.849 131.128C357.834 131.128 356.737 131.441 355.558 132.066V130.474C356.854 129.946 358.068 129.683 359.201 129.683C360.386 129.683 361.258 129.95 361.818 130.484C362.385 131.017 362.668 131.847 362.668 132.974V137.778C362.668 138.879 363.006 139.429 363.683 139.429C363.768 139.429 363.892 139.416 364.054 139.39L364.191 140.454C363.755 140.663 363.273 140.767 362.746 140.767C361.847 140.767 361.275 140.236 361.027 139.175ZM360.744 138.13V135.386L360.099 135.366C359.045 135.366 358.192 135.568 357.541 135.972C356.89 136.369 356.564 136.893 356.564 137.544C356.564 138.006 356.727 138.397 357.053 138.716C357.378 139.035 357.775 139.194 358.244 139.194C359.045 139.194 359.878 138.84 360.744 138.13ZM370.754 140.767C369.321 140.767 368.133 140.236 367.189 139.175C366.245 138.114 365.773 136.776 365.773 135.161C365.773 133.436 366.239 132.092 367.17 131.128C368.107 130.165 369.413 129.683 371.086 129.683C371.913 129.683 372.837 129.797 373.859 130.025V131.636C372.772 131.317 371.886 131.157 371.203 131.157C370.22 131.157 369.429 131.528 368.83 132.271C368.237 133.006 367.941 133.989 367.941 135.22C367.941 136.411 368.247 137.375 368.859 138.11C369.471 138.846 370.272 139.214 371.261 139.214C372.14 139.214 373.045 138.989 373.976 138.54V140.2C372.733 140.578 371.659 140.767 370.754 140.767ZM384.64 140.181C383.351 140.571 382.248 140.767 381.33 140.767C379.767 140.767 378.491 140.249 377.502 139.214C376.519 138.172 376.027 136.825 376.027 135.171C376.027 133.563 376.46 132.245 377.326 131.216C378.198 130.187 379.312 129.673 380.666 129.673C381.948 129.673 382.938 130.129 383.635 131.04C384.338 131.952 384.689 133.247 384.689 134.927L384.679 135.523H377.99C378.27 138.042 379.504 139.302 381.691 139.302C382.492 139.302 383.475 139.087 384.64 138.657V140.181ZM378.078 134.077H382.756C382.756 132.105 382.02 131.118 380.549 131.118C379.071 131.118 378.247 132.105 378.078 134.077Z" fill="white"/>
<path d="M168.066 116.181C166.777 116.571 165.673 116.767 164.755 116.767C163.193 116.767 161.917 116.249 160.927 115.214C159.944 114.172 159.452 112.825 159.452 111.171C159.452 109.563 159.885 108.245 160.751 107.216C161.624 106.187 162.737 105.673 164.091 105.673C165.374 105.673 166.363 106.129 167.06 107.04C167.763 107.952 168.115 109.247 168.115 110.927L168.105 111.523H161.415C161.695 114.042 162.929 115.302 165.116 115.302C165.917 115.302 166.9 115.087 168.066 114.657V116.181ZM161.503 110.077H166.181C166.181 108.105 165.445 107.118 163.974 107.118C162.496 107.118 161.672 108.105 161.503 110.077ZM178.251 116.523V114.53C177.47 116.021 176.292 116.767 174.716 116.767C173.44 116.767 172.434 116.301 171.699 115.37C170.969 114.439 170.605 113.166 170.605 111.552C170.605 109.788 171.018 108.368 171.845 107.294C172.678 106.22 173.772 105.683 175.126 105.683C176.383 105.683 177.424 106.165 178.251 107.128V101.103H180.185V116.523H178.251ZM178.251 108.446C177.255 107.568 176.311 107.128 175.419 107.128C173.577 107.128 172.656 108.538 172.656 111.357C172.656 113.837 173.476 115.077 175.116 115.077C176.184 115.077 177.229 114.495 178.251 113.329V108.446ZM184.042 116.523V105.917H185.966V116.523H184.042ZM184.042 103.993V102.069H185.966V103.993H184.042ZM193.007 116.767C192.031 116.767 191.269 116.487 190.722 115.927C190.175 115.367 189.902 114.589 189.902 113.593V107.362H188.574V105.917H189.902V103.993L191.825 103.808V105.917H194.599V107.362H191.825V113.241C191.825 114.628 192.424 115.321 193.622 115.321C193.876 115.321 194.185 115.279 194.55 115.194V116.523C193.958 116.685 193.443 116.767 193.007 116.767ZM197.304 116.523V105.917H199.228V116.523H197.304ZM197.304 103.993V102.069H199.228V103.993H197.304ZM203.085 116.523V105.917H205.009V107.909C206.025 106.425 207.268 105.683 208.74 105.683C209.658 105.683 210.39 105.976 210.937 106.562C211.484 107.141 211.757 107.922 211.757 108.905V116.523H209.833V109.53C209.833 108.743 209.716 108.183 209.482 107.851C209.254 107.512 208.873 107.343 208.339 107.343C207.161 107.343 206.051 108.114 205.009 109.657V116.523H203.085ZM215.546 120.048L215.771 118.378C216.884 118.905 217.981 119.169 219.062 119.169C221.23 119.169 222.314 118.02 222.314 115.722V114.052C221.604 115.536 220.439 116.278 218.818 116.278C217.548 116.278 216.539 115.816 215.79 114.892C215.042 113.967 214.667 112.72 214.667 111.151C214.667 109.537 215.094 108.222 215.947 107.206C216.799 106.191 217.903 105.683 219.257 105.683C220.442 105.683 221.461 106.165 222.314 107.128V105.917H224.247V113.632C224.247 115.292 224.159 116.519 223.984 117.314C223.814 118.114 223.492 118.769 223.017 119.276C222.177 120.168 220.872 120.614 219.101 120.614C217.864 120.614 216.679 120.426 215.546 120.048ZM222.314 112.851V108.446C221.467 107.568 220.546 107.128 219.55 107.128C218.665 107.128 217.971 107.483 217.47 108.193C216.969 108.902 216.718 109.875 216.718 111.112C216.718 113.437 217.535 114.599 219.169 114.599C220.283 114.599 221.331 114.016 222.314 112.851ZM154.941 140.884C152.695 140.884 150.96 140.226 149.736 138.911C148.512 137.59 147.9 135.721 147.9 133.306C147.9 130.897 148.521 129.028 149.765 127.7C151.015 126.372 152.773 125.708 155.038 125.708C156.334 125.708 157.851 125.92 159.589 126.343V128.267C157.61 127.583 156.083 127.241 155.009 127.241C153.44 127.241 152.226 127.772 151.366 128.833C150.507 129.894 150.077 131.392 150.077 133.325C150.077 135.168 150.536 136.623 151.454 137.691C152.372 138.752 153.626 139.282 155.214 139.282C156.581 139.282 158.046 138.862 159.609 138.023V139.78C158.183 140.516 156.627 140.884 154.941 140.884ZM165.429 140.884C164.459 140.884 163.219 140.672 161.708 140.249V138.218C163.336 138.973 164.674 139.351 165.722 139.351C166.529 139.351 167.177 139.139 167.665 138.716C168.16 138.293 168.408 137.736 168.408 137.046C168.408 136.48 168.245 135.998 167.919 135.601C167.6 135.204 167.008 134.761 166.142 134.273L165.146 133.696C163.915 132.993 163.046 132.332 162.538 131.714C162.037 131.089 161.786 130.363 161.786 129.536C161.786 128.423 162.19 127.508 162.997 126.792C163.805 126.069 164.833 125.708 166.083 125.708C167.197 125.708 168.372 125.894 169.609 126.265V128.14C168.085 127.541 166.949 127.241 166.2 127.241C165.491 127.241 164.905 127.43 164.443 127.808C163.98 128.185 163.749 128.661 163.749 129.234C163.749 129.715 163.919 130.142 164.257 130.513C164.596 130.884 165.214 131.327 166.113 131.841L167.148 132.427C168.398 133.137 169.27 133.807 169.765 134.439C170.26 135.07 170.507 135.829 170.507 136.714C170.507 137.97 170.042 138.98 169.111 139.741C168.186 140.503 166.959 140.884 165.429 140.884ZM176.21 140.884C175.24 140.884 174 140.672 172.49 140.249V138.218C174.117 138.973 175.455 139.351 176.503 139.351C177.31 139.351 177.958 139.139 178.447 138.716C178.941 138.293 179.189 137.736 179.189 137.046C179.189 136.48 179.026 135.998 178.7 135.601C178.381 135.204 177.789 134.761 176.923 134.273L175.927 133.696C174.697 132.993 173.827 132.332 173.32 131.714C172.818 131.089 172.568 130.363 172.568 129.536C172.568 128.423 172.971 127.508 173.779 126.792C174.586 126.069 175.615 125.708 176.865 125.708C177.978 125.708 179.153 125.894 180.39 126.265V128.14C178.866 127.541 177.73 127.241 176.982 127.241C176.272 127.241 175.686 127.43 175.224 127.808C174.762 128.185 174.531 128.661 174.531 129.234C174.531 129.715 174.7 130.142 175.038 130.513C175.377 130.884 175.995 131.327 176.894 131.841L177.929 132.427C179.179 133.137 180.051 133.807 180.546 134.439C181.041 135.07 181.288 135.829 181.288 136.714C181.288 137.97 180.823 138.98 179.892 139.741C178.967 140.503 177.74 140.884 176.21 140.884ZM193.359 140.767C192.48 140.767 191.412 140.562 190.156 140.151V138.384C191.412 139.009 192.506 139.321 193.437 139.321C193.99 139.321 194.449 139.172 194.814 138.872C195.178 138.573 195.361 138.198 195.361 137.749C195.361 137.092 194.85 136.548 193.827 136.118L192.704 135.64C191.044 134.95 190.214 133.957 190.214 132.661C190.214 131.737 190.54 131.011 191.191 130.484C191.848 129.95 192.747 129.683 193.886 129.683C194.478 129.683 195.211 129.764 196.083 129.927L196.484 130.005V131.607C195.409 131.288 194.557 131.128 193.925 131.128C192.688 131.128 192.07 131.577 192.07 132.476C192.07 133.055 192.538 133.543 193.476 133.941L194.404 134.331C195.452 134.774 196.194 135.243 196.63 135.737C197.066 136.226 197.284 136.838 197.284 137.573C197.284 138.504 196.917 139.269 196.181 139.868C195.445 140.467 194.505 140.767 193.359 140.767ZM203.925 140.767C202.949 140.767 202.187 140.487 201.64 139.927C201.093 139.367 200.82 138.589 200.82 137.593V131.362H199.491V129.917H200.82V127.993L202.743 127.808V129.917H205.517V131.362H202.743V137.241C202.743 138.628 203.342 139.321 204.54 139.321C204.794 139.321 205.103 139.279 205.468 139.194V140.523C204.876 140.685 204.361 140.767 203.925 140.767ZM208.837 144.38L210.556 140.523L206.454 129.917H208.534L211.572 137.905L214.814 129.917H216.63L210.839 144.38H208.837ZM218.671 140.523V125.103H220.595V140.523H218.671ZM232.226 140.181C230.937 140.571 229.833 140.767 228.915 140.767C227.353 140.767 226.077 140.249 225.087 139.214C224.104 138.172 223.613 136.825 223.613 135.171C223.613 133.563 224.046 132.245 224.911 131.216C225.784 130.187 226.897 129.673 228.251 129.673C229.534 129.673 230.523 130.129 231.22 131.04C231.923 131.952 232.275 133.247 232.275 134.927L232.265 135.523H225.575C225.855 138.042 227.089 139.302 229.277 139.302C230.077 139.302 231.06 139.087 232.226 138.657V140.181ZM225.663 134.077H230.341C230.341 132.105 229.605 131.118 228.134 131.118C226.656 131.118 225.833 132.105 225.663 134.077ZM238.417 140.767C237.538 140.767 236.471 140.562 235.214 140.151V138.384C236.471 139.009 237.564 139.321 238.495 139.321C239.049 139.321 239.508 139.172 239.872 138.872C240.237 138.573 240.419 138.198 240.419 137.749C240.419 137.092 239.908 136.548 238.886 136.118L237.763 135.64C236.103 134.95 235.273 133.957 235.273 132.661C235.273 131.737 235.598 131.011 236.249 130.484C236.907 129.95 237.805 129.683 238.945 129.683C239.537 129.683 240.269 129.764 241.142 129.927L241.542 130.005V131.607C240.468 131.288 239.615 131.128 238.984 131.128C237.747 131.128 237.128 131.577 237.128 132.476C237.128 133.055 237.597 133.543 238.534 133.941L239.462 134.331C240.51 134.774 241.253 135.243 241.689 135.737C242.125 136.226 242.343 136.838 242.343 137.573C242.343 138.504 241.975 139.269 241.24 139.868C240.504 140.467 239.563 140.767 238.417 140.767Z" fill="white"/>
<path d="M163.34 28.3334H195.086M176.706 55H183.39M191.744 55H205.111" stroke="white" stroke-width="4" stroke-miterlimit="10" stroke-linecap="round" stroke-linejoin="round"/>
<path d="M230.173 40.1V53.7C230.173 65.4 227.199 68.3333 215.336 68.3333H178.177C166.314 68.3333 163.34 65.4 163.34 53.7V26.3C163.34 14.6 166.314 11.6666 178.177 11.6666H205.111" stroke="white" stroke-width="4" stroke-linecap="round" stroke-linejoin="round"/>
<path d="M220.416 13.7666L208.018 26.1333C207.55 26.6 207.082 27.5333 206.982 28.2L206.314 32.9333C206.08 34.6333 207.283 35.8333 208.987 35.6L213.732 34.9333C214.401 34.8333 215.336 34.3666 215.804 33.9L228.202 21.5333C230.34 19.4 231.343 16.9333 228.202 13.8C225.027 10.6333 222.554 11.6333 220.416 13.7666Z" stroke="white" stroke-width="4" stroke-miterlimit="10" stroke-linecap="round" stroke-linejoin="round"/>
<path d="M218.645 15.5333C219.714 19.3 222.655 22.2333 226.397 23.2667" stroke="white" stroke-width="4" stroke-miterlimit="10" stroke-linecap="round" stroke-linejoin="round"/>
<path d="M31.0777 43.3334C28.8722 44.4334 27.0342 46.0667 25.6641 48.1C24.8956 49.2667 24.8956 50.7334 25.6641 51.9C27.0342 53.9334 28.8722 55.5667 31.0777 56.6667M51.8296 43.3334C54.0351 44.4334 55.873 46.0667 57.2431 48.1C58.0117 49.2667 58.0117 50.7334 57.2431 51.9C55.873 53.9334 54.0351 55.5667 51.8296 56.6667" stroke="white" stroke-width="4" stroke-linecap="round" stroke-linejoin="round"/>
<path d="M8.45446 26.7L72.6817 26.6666M31.0777 73.3333H51.1278C67.8362 73.3333 74.5196 66.6666 74.5196 50V30C74.5196 13.3333 67.8362 6.66663 51.1278 6.66663H31.0777C14.3692 6.66663 7.68587 13.3333 7.68587 30V50C7.68587 66.6666 14.3692 73.3333 31.0777 73.3333Z" stroke="white" stroke-width="4" stroke-linecap="round" stroke-linejoin="round"/>
<path d="M374.495 22.4667C374.495 11.2334 371.688 8.43335 360.427 8.43335H325.239C313.977 8.43335 311.17 11.2334 311.17 22.4667V42.4667C311.17 53.7 313.977 56.5 325.239 56.5H337.904V71.5667H327.01M311.17 43.1667H337.904" stroke="white" stroke-width="4" stroke-linecap="round" stroke-linejoin="round"/>
<path d="M378.004 42.6667V61.7C378.004 69.6 376.033 71.5667 368.113 71.5667H356.25C348.33 71.5667 346.358 69.6 346.358 61.7V42.6667C346.358 34.7667 348.33 32.8 356.25 32.8H368.113C376.033 32.8 378.004 34.7667 378.004 42.6667Z" stroke="white" stroke-width="4" stroke-linecap="round" stroke-linejoin="round"/>
<path d="M362.111 60.8334H362.144" stroke="white" stroke-width="4" stroke-linecap="round" stroke-linejoin="round"/>
<path d="M51.8295 267.117V251.58H53.7533V258.387C54.541 256.902 55.7227 256.16 57.2982 256.16C58.5742 256.16 59.5768 256.626 60.306 257.557C61.0417 258.488 61.4095 259.76 61.4095 261.375C61.4095 263.133 60.9929 264.552 60.1595 265.633C59.3327 266.707 58.2422 267.244 56.888 267.244C55.6315 267.244 54.5866 266.762 53.7533 265.799L53.5189 267.117H51.8295ZM53.7533 264.471C54.7429 265.356 55.6869 265.799 56.5853 265.799C58.4343 265.799 59.3587 264.389 59.3587 261.57C59.3587 259.083 58.5384 257.84 56.8978 257.84C55.8236 257.84 54.7754 258.423 53.7533 259.588V264.471ZM69.8959 265.652C68.7435 266.714 67.6335 267.244 66.5658 267.244C65.6869 267.244 64.9577 266.971 64.3783 266.424C63.7989 265.87 63.5091 265.174 63.5091 264.334C63.5091 263.175 63.9942 262.286 64.9642 261.668C65.9408 261.043 67.3373 260.73 69.1537 260.73H69.6127V259.451C69.6127 258.221 68.9811 257.605 67.7181 257.605C66.7025 257.605 65.6055 257.918 64.4271 258.543V256.951C65.7227 256.424 66.9369 256.16 68.0697 256.16C69.2546 256.16 70.127 256.427 70.6869 256.961C71.2533 257.495 71.5365 258.325 71.5365 259.451V264.256C71.5365 265.356 71.875 265.906 72.5521 265.906C72.6367 265.906 72.7604 265.893 72.9232 265.867L73.0599 266.932C72.6237 267.14 72.142 267.244 71.6146 267.244C70.7162 267.244 70.1433 266.714 69.8959 265.652ZM69.6127 264.607V261.863L68.9681 261.844C67.9134 261.844 67.0606 262.046 66.4095 262.449C65.7585 262.846 65.433 263.37 65.433 264.021C65.433 264.484 65.5957 264.874 65.9212 265.193C66.2468 265.512 66.6439 265.672 67.1127 265.672C67.9134 265.672 68.7468 265.317 69.6127 264.607ZM79.6224 267.244C78.1901 267.244 77.002 266.714 76.058 265.652C75.114 264.591 74.642 263.253 74.642 261.639C74.642 259.913 75.1074 258.569 76.0384 257.605C76.9759 256.642 78.2813 256.16 79.9545 256.16C80.7813 256.16 81.7058 256.274 82.7279 256.502V258.113C81.6407 257.794 80.7552 257.635 80.0716 257.635C79.0886 257.635 78.2976 258.006 77.6986 258.748C77.1061 259.484 76.8099 260.467 76.8099 261.697C76.8099 262.889 77.1159 263.852 77.7279 264.588C78.3399 265.324 79.1407 265.691 80.1302 265.691C81.0091 265.691 81.9141 265.467 82.8451 265.018V266.678C81.6016 267.055 80.5274 267.244 79.6224 267.244ZM85.7357 267V251.58H87.6595V261.541L92.1517 256.395H94.222L89.9349 261.346L95.1107 267H92.6498L87.6595 261.561V267H85.7357ZM96.9564 261.941V260.496H105.628V261.941H96.9564ZM116.79 266.658C115.501 267.049 114.398 267.244 113.48 267.244C111.917 267.244 110.641 266.727 109.652 265.691C108.669 264.65 108.177 263.302 108.177 261.648C108.177 260.04 108.61 258.722 109.476 257.693C110.348 256.665 111.462 256.15 112.816 256.15C114.098 256.15 115.088 256.606 115.785 257.518C116.488 258.429 116.839 259.725 116.839 261.404L116.829 262H110.14C110.42 264.52 111.654 265.779 113.841 265.779C114.642 265.779 115.625 265.564 116.79 265.135V266.658ZM110.228 260.555H114.906C114.906 258.582 114.17 257.596 112.699 257.596C111.221 257.596 110.397 258.582 110.228 260.555ZM120.169 267V256.395H122.093V258.387C123.109 256.902 124.352 256.16 125.824 256.16C126.742 256.16 127.474 256.453 128.021 257.039C128.568 257.618 128.841 258.4 128.841 259.383V267H126.917V260.008C126.917 259.22 126.8 258.66 126.566 258.328C126.338 257.99 125.957 257.82 125.423 257.82C124.245 257.82 123.135 258.592 122.093 260.135V267H120.169ZM139.398 267V265.008C138.617 266.499 137.438 267.244 135.863 267.244C134.587 267.244 133.581 266.779 132.845 265.848C132.116 264.917 131.751 263.644 131.751 262.029C131.751 260.265 132.165 258.846 132.992 257.771C133.825 256.697 134.919 256.16 136.273 256.16C137.529 256.16 138.571 256.642 139.398 257.605V251.58H141.331V267H139.398ZM139.398 258.924C138.402 258.045 137.458 257.605 136.566 257.605C134.723 257.605 133.802 259.015 133.802 261.834C133.802 264.314 134.622 265.555 136.263 265.555C137.331 265.555 138.376 264.972 139.398 263.807V258.924ZM49.017 291.244C48.138 291.244 47.0703 291.039 45.8138 290.629V288.861C47.0703 289.486 48.1641 289.799 49.0951 289.799C49.6485 289.799 50.1074 289.649 50.472 289.35C50.8366 289.05 51.0189 288.676 51.0189 288.227C51.0189 287.569 50.5078 287.025 49.4857 286.596L48.3627 286.117C46.7025 285.427 45.8724 284.434 45.8724 283.139C45.8724 282.214 46.1979 281.488 46.849 280.961C47.5065 280.427 48.405 280.16 49.5443 280.16C50.1367 280.16 50.8692 280.242 51.7416 280.404L52.142 280.482V282.084C51.0677 281.765 50.2149 281.605 49.5834 281.605C48.3464 281.605 47.7279 282.055 47.7279 282.953C47.7279 283.533 48.1966 284.021 49.1341 284.418L50.0619 284.809C51.1101 285.251 51.8522 285.72 52.2884 286.215C52.7246 286.703 52.9427 287.315 52.9427 288.051C52.9427 288.982 52.5749 289.747 51.8392 290.346C51.1035 290.945 50.1628 291.244 49.017 291.244ZM56.3998 291V280.395H58.3236V291H56.3998ZM56.3998 278.471V276.547H58.3236V278.471H56.3998ZM62.181 291V280.395H64.1048V282.387C65.0423 280.902 66.2468 280.16 67.7181 280.16C69.1374 280.16 70.1042 280.902 70.6185 282.387C71.53 280.896 72.7149 280.15 74.1732 280.15C75.1107 280.15 75.8366 280.427 76.3509 280.98C76.8653 281.527 77.1224 282.296 77.1224 283.285V291H75.1888V283.588C75.1888 282.377 74.7103 281.771 73.7533 281.771C72.7572 281.771 71.7123 282.478 70.6185 283.891V291H68.6849V283.588C68.6849 282.37 68.1966 281.762 67.2201 281.762C66.25 281.762 65.2116 282.471 64.1048 283.891V291H62.181ZM80.8529 294.857V280.395H82.7767V282.387C83.5645 280.902 84.7461 280.16 86.3216 280.16C87.5977 280.16 88.6003 280.626 89.3295 281.557C90.0651 282.488 90.433 283.76 90.433 285.375C90.433 287.133 90.0163 288.552 89.183 289.633C88.3561 290.707 87.2657 291.244 85.9115 291.244C84.655 291.244 83.6101 290.762 82.7767 289.799V294.857H80.8529ZM82.7767 288.471C83.7663 289.356 84.7103 289.799 85.6087 289.799C87.4577 289.799 88.3822 288.389 88.3822 285.57C88.3822 283.083 87.5619 281.84 85.9212 281.84C84.847 281.84 83.7989 282.423 82.7767 283.588V288.471ZM93.4505 291V275.58H95.3744V291H93.4505ZM107.005 290.658C105.716 291.049 104.613 291.244 103.695 291.244C102.132 291.244 100.856 290.727 99.8666 289.691C98.8835 288.65 98.392 287.302 98.392 285.648C98.392 284.04 98.8249 282.722 99.6908 281.693C100.563 280.665 101.676 280.15 103.031 280.15C104.313 280.15 105.303 280.606 105.999 281.518C106.702 282.429 107.054 283.725 107.054 285.404L107.044 286H100.355C100.635 288.52 101.869 289.779 104.056 289.779C104.857 289.779 105.84 289.564 107.005 289.135V290.658ZM100.443 284.555H105.12C105.12 282.582 104.385 281.596 102.913 281.596C101.436 281.596 100.612 282.582 100.443 284.555ZM119.896 291.244C118.919 291.244 118.158 290.964 117.611 290.404C117.064 289.844 116.79 289.066 116.79 288.07V281.84H115.462V280.395H116.79V278.471L118.714 278.285V280.395H121.488V281.84H118.714V287.719C118.714 289.105 119.313 289.799 120.511 289.799C120.765 289.799 121.074 289.757 121.439 289.672V291C120.846 291.163 120.332 291.244 119.896 291.244ZM129.661 289.652C128.509 290.714 127.399 291.244 126.331 291.244C125.452 291.244 124.723 290.971 124.144 290.424C123.564 289.87 123.275 289.174 123.275 288.334C123.275 287.175 123.76 286.286 124.73 285.668C125.706 285.043 127.103 284.73 128.919 284.73H129.378V283.451C129.378 282.221 128.747 281.605 127.484 281.605C126.468 281.605 125.371 281.918 124.193 282.543V280.951C125.488 280.424 126.702 280.16 127.835 280.16C129.02 280.16 129.893 280.427 130.452 280.961C131.019 281.495 131.302 282.325 131.302 283.451V288.256C131.302 289.356 131.641 289.906 132.318 289.906C132.402 289.906 132.526 289.893 132.689 289.867L132.826 290.932C132.389 291.14 131.908 291.244 131.38 291.244C130.482 291.244 129.909 290.714 129.661 289.652ZM129.378 288.607V285.863L128.734 285.844C127.679 285.844 126.826 286.046 126.175 286.449C125.524 286.846 125.199 287.37 125.199 288.021C125.199 288.484 125.361 288.874 125.687 289.193C126.012 289.512 126.41 289.672 126.878 289.672C127.679 289.672 128.512 289.317 129.378 288.607ZM138.06 291.244C137.181 291.244 136.113 291.039 134.857 290.629V288.861C136.113 289.486 137.207 289.799 138.138 289.799C138.691 289.799 139.15 289.649 139.515 289.35C139.88 289.05 140.062 288.676 140.062 288.227C140.062 287.569 139.551 287.025 138.529 286.596L137.406 286.117C135.745 285.427 134.915 284.434 134.915 283.139C134.915 282.214 135.241 281.488 135.892 280.961C136.55 280.427 137.448 280.16 138.587 280.16C139.18 280.16 139.912 280.242 140.785 280.404L141.185 280.482V282.084C140.111 281.765 139.258 281.605 138.626 281.605C137.389 281.605 136.771 282.055 136.771 282.953C136.771 283.533 137.24 284.021 138.177 284.418L139.105 284.809C140.153 285.251 140.895 285.72 141.331 286.215C141.768 286.703 141.986 287.315 141.986 288.051C141.986 288.982 141.618 289.747 140.882 290.346C140.147 290.945 139.206 291.244 138.06 291.244ZM145.443 291V275.58H147.367V285.541L151.859 280.395H153.929L149.642 285.346L154.818 291H152.357L147.367 285.561V291H145.443Z" fill="white"/>
<path d="M247.055 261.473L244.594 255.242L242.124 261.473H247.055ZM249.223 267L247.651 262.996H241.528L239.936 267H238.032L243.764 252.547H245.795L251.44 267H249.223ZM253.598 267V256.395H255.522V258.387C256.538 256.902 257.781 256.16 259.253 256.16C260.17 256.16 260.903 256.453 261.45 257.039C261.997 257.618 262.27 258.4 262.27 259.383V267H260.346V260.008C260.346 259.22 260.229 258.66 259.995 258.328C259.767 257.99 259.386 257.82 258.852 257.82C257.674 257.82 256.564 258.592 255.522 260.135V267H253.598ZM266.02 267V256.395H267.944V267H266.02ZM266.02 254.471V252.547H267.944V254.471H266.02ZM271.801 267V256.395H273.725V258.387C274.663 256.902 275.867 256.16 277.338 256.16C278.758 256.16 279.725 256.902 280.239 258.387C281.15 256.896 282.335 256.15 283.794 256.15C284.731 256.15 285.457 256.427 285.971 256.98C286.486 257.527 286.743 258.296 286.743 259.285V267H284.809V259.588C284.809 258.377 284.331 257.771 283.374 257.771C282.378 257.771 281.333 258.478 280.239 259.891V267H278.305V259.588C278.305 258.37 277.817 257.762 276.84 257.762C275.87 257.762 274.832 258.471 273.725 259.891V267H271.801ZM295.942 265.652C294.79 266.714 293.68 267.244 292.612 267.244C291.733 267.244 291.004 266.971 290.424 266.424C289.845 265.87 289.555 265.174 289.555 264.334C289.555 263.175 290.04 262.286 291.01 261.668C291.987 261.043 293.383 260.73 295.2 260.73H295.659V259.451C295.659 258.221 295.027 257.605 293.764 257.605C292.749 257.605 291.652 257.918 290.473 258.543V256.951C291.769 256.424 292.983 256.16 294.116 256.16C295.301 256.16 296.173 256.427 296.733 256.961C297.299 257.495 297.583 258.325 297.583 259.451V264.256C297.583 265.356 297.921 265.906 298.598 265.906C298.683 265.906 298.807 265.893 298.969 265.867L299.106 266.932C298.67 267.14 298.188 267.244 297.661 267.244C296.762 267.244 296.189 266.714 295.942 265.652ZM295.659 264.607V261.863L295.014 261.844C293.96 261.844 293.107 262.046 292.456 262.449C291.805 262.846 291.479 263.37 291.479 264.021C291.479 264.484 291.642 264.874 291.967 265.193C292.293 265.512 292.69 265.672 293.159 265.672C293.96 265.672 294.793 265.317 295.659 264.607ZM304.711 267.244C303.735 267.244 302.973 266.964 302.426 266.404C301.879 265.844 301.606 265.066 301.606 264.07V257.84H300.278V256.395H301.606V254.471L303.53 254.285V256.395H306.303V257.84H303.53V263.719C303.53 265.105 304.129 265.799 305.327 265.799C305.581 265.799 305.89 265.757 306.254 265.672V267C305.662 267.163 305.148 267.244 304.711 267.244ZM309.008 267V256.395H310.932V267H309.008ZM309.008 254.471V252.547H310.932V254.471H309.008ZM318.94 267.244C317.423 267.244 316.212 266.743 315.307 265.74C314.402 264.731 313.95 263.383 313.95 261.697C313.95 259.992 314.402 258.644 315.307 257.654C316.219 256.658 317.452 256.16 319.008 256.16C320.564 256.16 321.795 256.658 322.7 257.654C323.611 258.644 324.067 259.985 324.067 261.678C324.067 263.41 323.611 264.77 322.7 265.76C321.788 266.749 320.535 267.244 318.94 267.244ZM318.969 265.799C321.007 265.799 322.026 264.425 322.026 261.678C322.026 258.963 321.02 257.605 319.008 257.605C317.003 257.605 316.001 258.969 316.001 261.697C316.001 264.432 316.99 265.799 318.969 265.799ZM327.075 267V256.395H328.999V258.387C330.014 256.902 331.258 256.16 332.729 256.16C333.647 256.16 334.379 256.453 334.926 257.039C335.473 257.618 335.747 258.4 335.747 259.383V267H333.823V260.008C333.823 259.22 333.706 258.66 333.471 258.328C333.243 257.99 332.863 257.82 332.329 257.82C331.15 257.82 330.04 258.592 328.999 260.135V267H327.075ZM245.776 291.244C244.259 291.244 243.048 290.743 242.143 289.74C241.238 288.731 240.786 287.383 240.786 285.697C240.786 283.992 241.238 282.644 242.143 281.654C243.055 280.658 244.288 280.16 245.844 280.16C247.4 280.16 248.631 280.658 249.536 281.654C250.447 282.644 250.903 283.985 250.903 285.678C250.903 287.41 250.447 288.77 249.536 289.76C248.624 290.749 247.371 291.244 245.776 291.244ZM245.805 289.799C247.843 289.799 248.862 288.425 248.862 285.678C248.862 282.963 247.856 281.605 245.844 281.605C243.839 281.605 242.836 282.969 242.836 285.697C242.836 288.432 243.826 289.799 245.805 289.799ZM256.206 281.84V291H254.272V281.84H252.768V280.395H254.272V279.125C254.272 276.599 255.424 275.336 257.729 275.336C258.374 275.336 259.106 275.443 259.926 275.658V277.182C259.06 276.915 258.367 276.781 257.846 276.781C257.215 276.781 256.782 276.934 256.547 277.24C256.32 277.54 256.206 278.1 256.206 278.92V280.395H258.852V281.84H256.206ZM271.753 291.244C270.236 291.244 269.025 290.743 268.12 289.74C267.215 288.731 266.762 287.383 266.762 285.697C266.762 283.992 267.215 282.644 268.12 281.654C269.031 280.658 270.265 280.16 271.821 280.16C273.377 280.16 274.607 280.658 275.512 281.654C276.424 282.644 276.879 283.985 276.879 285.678C276.879 287.41 276.424 288.77 275.512 289.76C274.601 290.749 273.348 291.244 271.753 291.244ZM271.782 289.799C273.82 289.799 274.838 288.425 274.838 285.678C274.838 282.963 273.833 281.605 271.821 281.605C269.816 281.605 268.813 282.969 268.813 285.697C268.813 288.432 269.803 289.799 271.782 289.799ZM279.887 291.117V275.58H281.811V282.387C282.599 280.902 283.781 280.16 285.356 280.16C286.632 280.16 287.635 280.626 288.364 281.557C289.1 282.488 289.467 283.76 289.467 285.375C289.467 287.133 289.051 288.552 288.217 289.633C287.391 290.707 286.3 291.244 284.946 291.244C283.689 291.244 282.644 290.762 281.811 289.799L281.577 291.117H279.887ZM281.811 288.471C282.801 289.356 283.745 289.799 284.643 289.799C286.492 289.799 287.417 288.389 287.417 285.57C287.417 283.083 286.596 281.84 284.956 281.84C283.881 281.84 282.833 282.423 281.811 283.588V288.471ZM289.057 294.604V293.08C289.956 293.458 290.639 293.646 291.108 293.646C291.785 293.646 292.234 293.471 292.456 293.119C292.677 292.768 292.788 292.061 292.788 291V280.395H294.721V291C294.721 293.728 293.569 295.092 291.264 295.092C290.581 295.092 289.845 294.929 289.057 294.604ZM292.788 278.471V276.547H294.721V278.471H292.788ZM306.352 290.658C305.063 291.049 303.96 291.244 303.042 291.244C301.479 291.244 300.203 290.727 299.213 289.691C298.23 288.65 297.739 287.302 297.739 285.648C297.739 284.04 298.172 282.722 299.038 281.693C299.91 280.665 301.023 280.15 302.378 280.15C303.66 280.15 304.65 280.606 305.346 281.518C306.049 282.429 306.401 283.725 306.401 285.404L306.391 286H299.702C299.982 288.52 301.215 289.779 303.403 289.779C304.204 289.779 305.187 289.564 306.352 289.135V290.658ZM299.79 284.555H304.467C304.467 282.582 303.732 281.596 302.26 281.596C300.782 281.596 299.959 282.582 299.79 284.555ZM313.872 291.244C312.439 291.244 311.251 290.714 310.307 289.652C309.363 288.591 308.891 287.253 308.891 285.639C308.891 283.913 309.357 282.569 310.288 281.605C311.225 280.642 312.531 280.16 314.204 280.16C315.031 280.16 315.955 280.274 316.977 280.502V282.113C315.89 281.794 315.004 281.635 314.321 281.635C313.338 281.635 312.547 282.006 311.948 282.748C311.355 283.484 311.059 284.467 311.059 285.697C311.059 286.889 311.365 287.852 311.977 288.588C312.589 289.324 313.39 289.691 314.379 289.691C315.258 289.691 316.163 289.467 317.094 289.018V290.678C315.851 291.055 314.777 291.244 313.872 291.244ZM323.169 291.244C322.192 291.244 321.43 290.964 320.883 290.404C320.336 289.844 320.063 289.066 320.063 288.07V281.84H318.735V280.395H320.063V278.471L321.987 278.285V280.395H324.76V281.84H321.987V287.719C321.987 289.105 322.586 289.799 323.784 289.799C324.038 289.799 324.347 289.757 324.711 289.672V291C324.119 291.163 323.605 291.244 323.169 291.244ZM330.278 291.244C329.399 291.244 328.331 291.039 327.075 290.629V288.861C328.331 289.486 329.425 289.799 330.356 289.799C330.909 289.799 331.368 289.649 331.733 289.35C332.098 289.05 332.28 288.676 332.28 288.227C332.28 287.569 331.769 287.025 330.747 286.596L329.624 286.117C327.963 285.427 327.133 284.434 327.133 283.139C327.133 282.214 327.459 281.488 328.11 280.961C328.767 280.427 329.666 280.16 330.805 280.16C331.398 280.16 332.13 280.242 333.003 280.404L333.403 280.482V282.084C332.329 281.765 331.476 281.605 330.844 281.605C329.607 281.605 328.989 282.055 328.989 282.953C328.989 283.533 329.458 284.021 330.395 284.418L331.323 284.809C332.371 285.251 333.113 285.72 333.549 286.215C333.986 286.703 334.204 287.315 334.204 288.051C334.204 288.982 333.836 289.747 333.1 290.346C332.364 290.945 331.424 291.244 330.278 291.244Z" fill="white"/>
<path d="M92.4788 217.848H108.519C121.886 217.848 127.232 212.515 127.232 199.182V183.182C127.232 169.848 121.886 164.515 108.519 164.515H92.4788C79.1121 164.515 73.7654 169.848 73.7654 183.182V199.182C73.7654 212.515 79.1121 217.848 92.4788 217.848Z" stroke="white" stroke-width="4" stroke-linecap="round" stroke-linejoin="round"/>
<path d="M87.1656 164.515V157.848M100.499 164.515V157.848M113.866 164.515V157.848M127.232 177.848H133.916M127.232 191.181H133.916M127.232 204.515H133.916M113.866 217.848V224.515M100.532 217.848V224.515M87.1656 217.848V224.515M67.082 177.848H73.7654M67.082 191.181H73.7654M67.082 204.515H73.7654M95.4864 207.848H105.511C113.866 207.848 117.207 204.515 117.207 196.181V186.181C117.207 177.848 113.866 174.515 105.511 174.515H95.4864C87.1321 174.515 83.7905 177.848 83.7905 186.181V196.181C83.7905 204.515 87.1321 207.848 95.4864 207.848Z" stroke="white" stroke-width="4" stroke-linecap="round" stroke-linejoin="round"/>
<path d="M273.006 164.515H249.615M269.665 217.848H249.615M259.64 191.182H249.615M275.747 195.448H286.072V219.448C286.072 222.982 290.483 224.648 292.823 221.982L318.119 193.315C320.325 190.815 318.554 186.915 315.212 186.915H304.886V162.915C304.886 159.382 300.475 157.715 298.136 160.382L272.839 189.048C270.667 191.548 272.438 195.448 275.747 195.448Z" stroke="white" stroke-width="4" stroke-miterlimit="10" stroke-linecap="round" stroke-linejoin="round"/>
</svg>
